# xmcd
#
# Track frame offsets:
# 150
# 11147
# 15726
# 21783
# 34039
# 40818
# 51283
# 64503
# 67402
# 79050
# 86944
# 113313
# 124778
# 134329
# 153781
#
# Disc length: 2363 seconds
#
#
# Revision: 0
# Processed by: cddbd v1.5.2PL0 Copyright (c) Steve Scherf et al.
# Submitted via: FreeRIP 2.943 
#
DISCID=c009390f
DTITLE=doktor bitch and billy crystal meth - mothers day and the buzzard of doom will peck your eyes out
DYEAR=2007
DGENRE=Trailer
TTITLE0=doktor bitch - trade derek hess to the bills
TTITLE1=doktor bitch - bombardment
TTITLE2=doktor bitch - ballad of scooter libby
TTITLE3=doktor bitch - night dump
TTITLE4=doktor bitch - take your pillz
TTITLE5=doktor bitch - ritchie apreille
TTITLE6=doktor bitch - el giza
TTITLE7=doktor bitch - k.t.s.f.p.u.
TTITLE8=doktor bitch - i went camping wrong (photo keith)
TTITLE9=doktor bitch - trade smokin' steve to the bulls
TTITLE10=billy crystal meth - mammoth (pelican cover)
TTITLE11=billy crystal meth - deconstructing harry
TTITLE12=billy crystal meth - throw mamma from the train
TTITLE13=billy crystal meth - mr. saturday night
TTITLE14=billy crystal meth - unearthly prophecy (live)
EXTD=z
EXTT0=
EXTT1=
EXTT2=
EXTT3=
EXTT4=
EXTT5=
EXTT6=
EXTT7=
EXTT8=
EXTT9=
EXTT10=
EXTT11=
EXTT12=
EXTT13=
EXTT14=
PLAYORDER=
